<svg width="50" height="50" viewBox="0 0 50 50" fill="none" xmlns="http://www.w3.org/2000/svg">
<g opacity="0.2">
<circle cx="25.1846" cy="24.7691" r="24.1846" stroke="#F3D677" stroke-width="0.671795"/>
<path fill-rule="evenodd" clip-rule="evenodd" d="M17.0245 16.2014C16.4174 16.5993 16.4174 17.4892 17.0245 17.8871L23.4996 22.1306C24.1698 22.5698 25.0597 22.0891 25.0597 21.2878V19.2238C25.8433 19.1912 26.6305 19.311 27.3765 19.5816C28.5785 20.0176 29.6117 20.823 30.3279 21.8824C31.044 22.9417 31.4065 24.2006 31.3632 25.4786C31.32 26.7566 30.8732 27.988 30.087 28.9965C29.3009 30.005 28.2156 30.7387 26.9868 31.0925C25.758 31.4462 24.4487 31.4019 23.2467 30.9659C22.0446 30.5298 21.0115 29.7244 20.2953 28.665C19.8316 27.9792 19.5163 27.2098 19.3632 26.4057C19.2245 25.6768 18.6587 25.0485 17.9171 25.0234L16.0797 24.9612C15.3381 24.9361 14.7076 25.5191 14.7767 26.2579C14.9413 28.0205 15.5465 29.7213 16.546 31.1998C17.7975 33.0509 19.6029 34.4583 21.7034 35.2202C23.8039 35.9822 26.0917 36.0597 28.2389 35.4415C30.3861 34.8233 32.2825 33.5412 33.6563 31.779C35.0301 30.0168 35.8107 27.8648 35.8863 25.6317C35.9619 23.3985 35.3286 21.1988 34.0771 19.3477C32.8257 17.4966 31.0203 16.0892 28.9198 15.3272C27.6761 14.876 26.3667 14.6648 25.0597 14.6959V12.8007C25.0597 11.9994 24.1698 11.5186 23.4996 11.9578L17.0245 16.2014Z" fill="url(#paint0_linear_1_101)"/>
</g>
<defs>
<linearGradient id="paint0_linear_1_101" x1="14.7715" y1="23.7622" x2="41.4753" y2="18.8917" gradientUnits="userSpaceOnUse">
<stop stop-color="#F3D677"/>
<stop offset="1" stop-color="#F3D97D"/>
</linearGradient>
</defs>
</svg>
