<svg width="12" height="12" viewBox="0 0 12 12" fill="none" xmlns="http://www.w3.org/2000/svg">
<path d="M10.0833 3.12179H8.33332V2.24679C8.33332 1.86001 8.17968 1.48908 7.90619 1.21559C7.6327 0.942098 7.26176 0.788452 6.87499 0.788452H5.12499C4.73822 0.788452 4.36728 0.942098 4.09379 1.21559C3.8203 1.48908 3.66666 1.86001 3.66666 2.24679V3.12179H1.91666C1.45253 3.12179 1.00741 3.30616 0.67922 3.63435C0.351031 3.96254 0.166656 4.40766 0.166656 4.87179V9.53845C0.166656 10.0026 0.351031 10.4477 0.67922 10.7759C1.00741 11.1041 1.45253 11.2885 1.91666 11.2885H10.0833C10.5475 11.2885 10.9926 11.1041 11.3208 10.7759C11.6489 10.4477 11.8333 10.0026 11.8333 9.53845V4.87179C11.8333 4.40766 11.6489 3.96254 11.3208 3.63435C10.9926 3.30616 10.5475 3.12179 10.0833 3.12179ZM7.74999 4.28845V10.1218H4.24999V4.28845H7.74999ZM4.83332 2.24679C4.83332 2.16943 4.86405 2.09524 4.91875 2.04055C4.97345 1.98585 5.04764 1.95512 5.12499 1.95512H6.87499C6.95234 1.95512 7.02653 1.98585 7.08123 2.04055C7.13593 2.09524 7.16666 2.16943 7.16666 2.24679V3.12179H4.83332V2.24679ZM1.33332 9.53845V4.87179C1.33332 4.71708 1.39478 4.5687 1.50418 4.45931C1.61357 4.34991 1.76195 4.28845 1.91666 4.28845H3.08332V10.1218H1.91666C1.76195 10.1218 1.61357 10.0603 1.50418 9.95093C1.39478 9.84153 1.33332 9.69316 1.33332 9.53845ZM10.6667 9.53845C10.6667 9.69316 10.6052 9.84153 10.4958 9.95093C10.3864 10.0603 10.238 10.1218 10.0833 10.1218H8.91666V4.28845H10.0833C10.238 4.28845 10.3864 4.34991 10.4958 4.45931C10.6052 4.5687 10.6667 4.71708 10.6667 4.87179V9.53845Z" fill="white"/>
</svg>
