<svg width="22" height="22" viewBox="0 0 22 22" fill="none" xmlns="http://www.w3.org/2000/svg">
<path fill-rule="evenodd" clip-rule="evenodd" d="M17.7817 19.0261C19.8897 17.1199 21.2142 14.3634 21.2142 11.2976C21.2142 8.22289 19.882 5.45931 17.7634 3.55257C16.8084 9.34489 12.0545 13.8565 6.14606 14.4431V20.6206C7.54611 21.3205 9.12583 21.7143 10.7975 21.7143C12.4147 21.7143 13.9459 21.3457 15.3115 20.6881C15.2333 18.4389 14.4464 16.3698 13.1673 14.6972C13.9079 14.2263 14.598 13.683 15.2277 13.0774C16.5364 14.7787 17.4366 16.8105 17.7817 19.0261ZM3.52551 18.7558C1.58549 16.8639 0.380859 14.2215 0.380859 11.2976C0.380859 8.37378 1.58549 5.7313 3.52551 3.83941V11.8061V14.4431V18.7558ZM6.14606 1.97461V11.8061C11.1548 11.1816 15.0661 7.02316 15.3063 1.90463C13.9419 1.24854 12.4127 0.880951 10.7975 0.880951C9.12583 0.880951 7.54611 1.27474 6.14606 1.97461Z" fill="#131313"/>
<path fill-rule="evenodd" clip-rule="evenodd" d="M17.7817 19.0261C19.8897 17.1199 21.2142 14.3634 21.2142 11.2976C21.2142 8.22289 19.882 5.45931 17.7634 3.55257C16.8084 9.34489 12.0545 13.8565 6.14606 14.4431V20.6206C7.54611 21.3205 9.12583 21.7143 10.7975 21.7143C12.4147 21.7143 13.9459 21.3457 15.3115 20.6881C15.2333 18.4389 14.4464 16.3698 13.1673 14.6972C13.9079 14.2263 14.598 13.683 15.2277 13.0774C16.5364 14.7787 17.4366 16.8105 17.7817 19.0261ZM3.52551 18.7558C1.58549 16.8639 0.380859 14.2215 0.380859 11.2976C0.380859 8.37378 1.58549 5.7313 3.52551 3.83941V11.8061V14.4431V18.7558ZM6.14606 1.97461V11.8061C11.1548 11.1816 15.0661 7.02316 15.3063 1.90463C13.9419 1.24854 12.4127 0.880951 10.7975 0.880951C9.12583 0.880951 7.54611 1.27474 6.14606 1.97461Z" fill="url(#paint0_linear_1_67)"/>
<defs>
<linearGradient id="paint0_linear_1_67" x1="2.37183" y1="2.73197" x2="14.493" y2="20.448" gradientUnits="userSpaceOnUse">
<stop stop-color="#FF3863"/>
<stop offset="1" stop-color="#FF5E51"/>
</linearGradient>
</defs>
</svg>
