<svg width="50" height="50" viewBox="0 0 50 50" fill="none" xmlns="http://www.w3.org/2000/svg">
<g opacity="0.2">
<circle cx="25.0103" cy="24.7691" r="24.1846" stroke="#62BAF3" stroke-width="0.671795"/>
<path d="M36.7789 20.5538L29.1377 19.3848L25.7127 12.0786C25.4569 11.533 24.5631 11.533 24.3073 12.0786L20.8833 19.3848L13.242 20.5538C12.6144 20.6502 12.3638 21.4146 12.8039 21.8658L18.3552 27.5644L17.043 35.6205C16.9384 36.2605 17.6209 36.7407 18.1853 36.4265L25.0105 32.6489L31.8356 36.4275C32.3949 36.7387 33.0836 36.2678 32.978 35.6216L31.6658 27.5654L37.217 21.8669C37.6572 21.4146 37.4055 20.6502 36.7789 20.5538Z" fill="url(#paint0_linear_1_107)"/>
</g>
<defs>
<linearGradient id="paint0_linear_1_107" x1="17.9565" y1="29.136" x2="37.4386" y2="21.7463" gradientUnits="userSpaceOnUse">
<stop stop-color="#62BAF3"/>
<stop offset="1" stop-color="#6EDAED"/>
</linearGradient>
</defs>
</svg>
