<svg width="26" height="26" viewBox="0 0 26 26" fill="none" xmlns="http://www.w3.org/2000/svg">
<path d="M13 0.538452C10.5277 0.538452 8.11099 1.27156 6.05538 2.64508C3.99976 4.0186 2.39761 5.97083 1.45151 8.25491C0.505416 10.539 0.257874 13.0523 0.74019 15.4771C1.2225 17.9018 2.41301 20.1291 4.16117 21.8773C5.90933 23.6254 8.13662 24.816 10.5614 25.2983C12.9861 25.7806 15.4995 25.533 17.7836 24.587C20.0676 23.6409 22.0199 22.0387 23.3934 19.9831C24.7669 17.9275 25.5 15.5107 25.5 13.0385C25.5 11.3969 25.1767 9.77148 24.5485 8.25491C23.9203 6.73834 22.9996 5.36035 21.8388 4.19962C20.6781 3.03889 19.3001 2.11814 17.7836 1.48996C16.267 0.861774 14.6415 0.538452 13 0.538452ZM14.25 18.0385C14.25 18.37 14.1183 18.6879 13.8839 18.9223C13.6495 19.1568 13.3315 19.2885 13 19.2885C12.6685 19.2885 12.3505 19.1568 12.1161 18.9223C11.8817 18.6879 11.75 18.37 11.75 18.0385V11.7885C11.75 11.4569 11.8817 11.139 12.1161 10.9046C12.3505 10.6701 12.6685 10.5385 13 10.5385C13.3315 10.5385 13.6495 10.6701 13.8839 10.9046C14.1183 11.139 14.25 11.4569 14.25 11.7885V18.0385ZM13 9.28845C12.7528 9.28845 12.5111 9.21514 12.3055 9.07779C12.1 8.94044 11.9398 8.74522 11.8452 8.51681C11.7505 8.2884 11.7258 8.03707 11.774 7.79459C11.8223 7.55211 11.9413 7.32939 12.1161 7.15457C12.2909 6.97975 12.5137 6.8607 12.7561 6.81247C12.9986 6.76424 13.25 6.78899 13.4784 6.8836C13.7068 6.97821 13.902 7.13843 14.0393 7.34399C14.1767 7.54955 14.25 7.79123 14.25 8.03845C14.25 8.36997 14.1183 8.68792 13.8839 8.92234C13.6495 9.15676 13.3315 9.28845 13 9.28845Z" fill="white"/>
</svg>
