<svg width="62" height="62" viewBox="0 0 62 62" fill="none" xmlns="http://www.w3.org/2000/svg">
<circle cx="31.0973" cy="30.7695" r="30.2308" stroke="#D94A38" stroke-width="0.671795"/>
<path fill-rule="evenodd" clip-rule="evenodd" d="M40.9452 19.4153C39.9614 18.4314 38.3663 18.4314 37.3825 19.4153L30.9378 25.8599L24.4932 19.4153C23.5094 18.4314 21.9143 18.4314 20.9305 19.4153L19.7429 20.6028C18.7591 21.5867 18.7591 23.1818 19.7429 24.1656L26.1875 30.6102L19.7429 37.0548C18.7591 38.0386 18.7591 39.6337 19.7429 40.6176L20.9305 41.8051C21.9143 42.789 23.5094 42.789 24.4932 41.8051L30.9378 35.3605L37.3824 41.8051C38.3663 42.789 39.9614 42.789 40.9452 41.8051L42.1328 40.6176C43.1166 39.6337 43.1166 38.0386 42.1328 37.0548L35.6881 30.6102L42.1328 24.1656C43.1166 23.1818 43.1166 21.5867 42.1328 20.6028L40.9452 19.4153Z" fill="url(#paint0_linear_1_44)"/>
<defs>
<linearGradient id="paint0_linear_1_44" x1="17.6995" y1="45.333" x2="32.7166" y2="5.47604" gradientUnits="userSpaceOnUse">
<stop stop-color="#EA4080"/>
<stop offset="1" stop-color="#EE805F"/>
</linearGradient>
</defs>
</svg>
